<?xml version="1.0" encoding="UTF-8" standalone="no"?>
<!-- Created with Inkscape (http://www.inkscape.org/) -->

<svg
   xmlns:dc="http://purl.org/dc/elements/1.1/"
   xmlns:cc="http://creativecommons.org/ns#"
   xmlns:rdf="http://www.w3.org/1999/02/22-rdf-syntax-ns#"
   xmlns:svg="http://www.w3.org/2000/svg"
   xmlns="http://www.w3.org/2000/svg"
   xmlns:xlink="http://www.w3.org/1999/xlink"
   xmlns:sodipodi="http://sodipodi.sourceforge.net/DTD/sodipodi-0.dtd"
   xmlns:inkscape="http://www.inkscape.org/namespaces/inkscape"
   width="284"
   height="107.99998"
   viewBox="0 0 75.141665 28.574997"
   version="1.1"
   id="svg8"
   inkscape:version="0.92.4 5da689c313, 2019-01-14"
   sodipodi:docname="logo.svg">
  <defs
     id="defs2" />
  <sodipodi:namedview
     id="base"
     pagecolor="#ffffff"
     bordercolor="#666666"
     borderopacity="1.0"
     inkscape:pageopacity="0.0"
     inkscape:pageshadow="2"
     inkscape:zoom="2.9947644"
     inkscape:cx="125.72136"
     inkscape:cy="57.715762"
     inkscape:document-units="px"
     inkscape:current-layer="layer1"
     showgrid="true"
     inkscape:window-width="1920"
     inkscape:window-height="1015"
     inkscape:window-x="0"
     inkscape:window-y="0"
     inkscape:window-maximized="1"
     units="px"
     fit-margin-top="0"
     fit-margin-left="0"
     fit-margin-right="0"
     fit-margin-bottom="0">
    <inkscape:grid
       type="xygrid"
       id="grid867"
       spacingx="1.0583333"
       spacingy="1.0583333"
       empspacing="2"
       originx="-5.6399327e-015"
       originy="2.1166708"
       enabled="true" />
  </sodipodi:namedview>
  <metadata
     id="metadata5">
    <rdf:RDF>
      <cc:Work
         rdf:about="">
        <dc:format>image/svg+xml</dc:format>
        <dc:type
           rdf:resource="http://purl.org/dc/dcmitype/StillImage" />
        <dc:title />
        <cc:license
           rdf:resource="http://creativecommons.org/licenses/by/4.0/" />
      </cc:Work>
      <cc:License
         rdf:about="http://creativecommons.org/licenses/by/4.0/">
        <cc:permits
           rdf:resource="http://creativecommons.org/ns#Reproduction" />
        <cc:permits
           rdf:resource="http://creativecommons.org/ns#Distribution" />
        <cc:requires
           rdf:resource="http://creativecommons.org/ns#Notice" />
        <cc:requires
           rdf:resource="http://creativecommons.org/ns#Attribution" />
        <cc:permits
           rdf:resource="http://creativecommons.org/ns#DerivativeWorks" />
      </cc:License>
    </rdf:RDF>
  </metadata>
  <g
     inkscape:label="Layer 1"
     inkscape:groupmode="layer"
     id="layer1"
     transform="translate(0,-275.83332)">
    <text
       xml:space="preserve"
       style="font-style:normal;font-weight:normal;font-size:10.58333302px;line-height:125%;font-family:sans-serif;text-align:center;letter-spacing:0px;word-spacing:0px;text-anchor:middle;fill:#000000;fill-opacity:1;stroke:none;stroke-width:0.26458332px;stroke-linecap:butt;stroke-linejoin:miter;stroke-opacity:1"
       x="7.5757647"
       y="32.794643"
       id="text817"><tspan
         sodipodi:role="line"
         x="7.5757647"
         y="42.158413"
         style="font-style:normal;font-variant:normal;font-weight:900;font-stretch:normal;font-family:'Sarpanch Black';-inkscape-font-specification:'Sarpanch Black,  Heavy';text-align:start;text-anchor:start;stroke-width:0.26458332px"
         id="tspan819" /></text>
    <text
       xml:space="preserve"
       style="font-style:normal;font-weight:normal;font-size:10.58333302px;line-height:125%;font-family:sans-serif;text-align:center;letter-spacing:0px;word-spacing:0px;text-anchor:middle;fill:#000000;fill-opacity:1;stroke:none;stroke-width:0.26458332px;stroke-linecap:butt;stroke-linejoin:miter;stroke-opacity:1"
       x="41.010418"
       y="44.322914"
       id="text823"><tspan
         sodipodi:role="line"
         id="tspan821"
         x="42.695068"
         y="44.322914"
         style="stroke-width:0.26458332px"> </tspan></text>
    <flowRoot
       xml:space="preserve"
       id="flowRoot4576"
       style="font-style:normal;font-variant:normal;font-weight:normal;font-stretch:normal;font-size:40px;line-height:1.25;font-family:'Noto Sans';-inkscape-font-specification:'Noto Sans';letter-spacing:0px;word-spacing:0px;fill:#000000;fill-opacity:1;stroke:none"><flowRegion
         id="flowRegion4578"><rect
           id="rect4580"
           width="106.42857"
           height="75"
           x="18.571428"
           y="86.805397" /></flowRegion><flowPara
         id="flowPara4582" /></flowRoot>    <flowRoot
       xml:space="preserve"
       id="flowRoot4584"
       style="font-style:normal;font-variant:normal;font-weight:normal;font-stretch:normal;font-size:40px;line-height:1.25;font-family:'Noto Sans';-inkscape-font-specification:'Noto Sans';letter-spacing:0px;word-spacing:0px;fill:#000000;fill-opacity:1;stroke:none"><flowRegion
         id="flowRegion4586"><rect
           id="rect4588"
           width="0"
           height="74.285713"
           x="239.28572"
           y="153.94826" /></flowRegion><flowPara
         id="flowPara4590" /></flowRoot>    <path
       style="fill:#000000;fill-opacity:1;fill-rule:evenodd;stroke:none;stroke-width:0.26458332px;stroke-linecap:butt;stroke-linejoin:miter;stroke-opacity:1"
       d="m 0,306.52497 5.2916665,21.16666 5.2916665,-9.525 5.291667,9.525 5.291666,-21.16666 h -3.175 l -3.175,11.64166 -4.233333,-4.23333 -4.2333332,4.23333 -3.1749999,-11.64166 H 0"
       id="path909"
       inkscape:connector-curvature="0"
       sodipodi:nodetypes="ccccccccccc" />
    <use
       x="0"
       y="0"
       xlink:href="#g841"
       id="use911"
       transform="translate(-12.700001,30.691657)"
       width="100%"
       height="100%" />
    <use
       x="0"
       y="0"
       xlink:href="#g850"
       id="use913"
       transform="translate(5.8208334,30.691657)"
       width="100%"
       height="100%" />
    <path
       style="opacity:1;fill:#000000;fill-opacity:1;stroke:none;stroke-width:0.132;stroke-linecap:round;stroke-linejoin:round;stroke-miterlimit:4;stroke-dasharray:none;stroke-opacity:1"
       id="path4584"
       sodipodi:type="arc"
       sodipodi:cx="41.275002"
       sodipodi:cy="320.28336"
       sodipodi:rx="3.175"
       sodipodi:ry="3.175"
       sodipodi:start="1.5707963"
       sodipodi:end="6.0213859"
       d="m 41.275002,323.45836 a 3.175,3.175 0 0 1 -3.162919,-2.89828 3.175,3.175 0 0 1 2.611586,-3.40349 3.175,3.175 0 0 1 3.618147,2.30502 l -3.066814,0.82175 z" />
    <path
       style="opacity:1;fill:#000000;fill-opacity:1;stroke:none;stroke-width:0.132;stroke-linecap:round;stroke-linejoin:round;stroke-miterlimit:4;stroke-dasharray:none;stroke-opacity:1"
       id="path4586"
       sodipodi:type="arc"
       sodipodi:cx="41.293034"
       sodipodi:cy="324.51663"
       sodipodi:rx="3.175"
       sodipodi:ry="3.175"
       sodipodi:start="4.712389"
       sodipodi:end="2.8797933"
       d="m 41.293034,321.34163 a 3.175,3.175 0 0 1 3.162918,2.89828 3.175,3.175 0 0 1 -2.611586,3.40349 3.175,3.175 0 0 1 -3.618147,-2.30502 l 3.066815,-0.82175 z" />
    <circle
       style="opacity:1;fill:#ffffff;fill-opacity:1;stroke:none;stroke-width:0.132;stroke-linecap:round;stroke-linejoin:round;stroke-miterlimit:4;stroke-dasharray:none;stroke-opacity:1"
       id="path4588"
       cx="41.274998"
       cy="320.28333"
       r="1.0583333" />
    <circle
       style="opacity:1;fill:#ffffff;fill-opacity:1;stroke:none;stroke-width:0.132;stroke-linecap:round;stroke-linejoin:round;stroke-miterlimit:4;stroke-dasharray:none;stroke-opacity:1"
       id="path4590"
       cx="41.274998"
       cy="324.51666"
       r="1.0583333" />
    <g
       id="g4705">
      <path
         style="fill:#000000;fill-opacity:1;stroke:none;stroke-width:0.27383864"
         d="M 41.886719 0.044921875 A 39.999997 39.999997 0 0 0 24.660156 3.0585938 A 39.999997 39.999997 0 0 0 1.3808594 50.421875 A 39.999997 39.999997 0 0 0 45.328125 79.642578 A 39.999997 39.999997 0 0 0 80 39.855469 L 63.996094 39.914062 A 23.999999 23.999999 0 0 1 64 40 A 23.999999 23.999999 0 0 1 40 64 A 23.999999 23.999999 0 0 1 16 40 A 23.999999 23.999999 0 0 1 40 16 A 23.999999 23.999999 0 0 1 60.765625 28.009766 L 74.640625 20 A 39.999997 39.999997 0 0 0 41.886719 0.044921875 z "
         transform="matrix(0.26458334,0,0,0.26458334,0,275.83332)"
         id="path4600" />
      <rect
         y="286.41669"
         x="11.641666"
         height="4.2333331"
         width="9.5249996"
         id="rect4598"
         style="fill:#000000;fill-opacity:1;stroke:none;stroke-width:0.08016872" />
      <g
         id="g850">
        <rect
           style="fill:#020202;fill-opacity:1;stroke:none;stroke-width:0.07475773"
           id="rect4604"
           width="4.2333331"
           height="10.583324"
           x="21.166666"
           y="286.41666" />
        <path
           style="fill:#000000;fill-opacity:1;stroke:none;stroke-width:1.04132092"
           d="M 100 40 A 20 20 0 0 0 80 60 L 96 60 A 4.0000001 4.0000001 0 0 1 100 56 A 4.0000001 4.0000001 0 0 1 104 60 L 120 60 A 20 20 0 0 0 100 40 z "
           transform="matrix(0.26458334,0,0,0.26458334,0,275.83332)"
           id="path837" />
      </g>
      <path
         sodipodi:nodetypes="cccccccc"
         inkscape:connector-curvature="0"
         id="path4594"
         d="m 39.158333,286.41666 4.233334,-10e-6 2.116665,6.35001 2.116667,-6.35 h 4.233334 l -4.233333,10.58333 -4.233333,-1e-5 z"
         style="fill:#000000;fill-opacity:1;fill-rule:evenodd;stroke:none;stroke-width:0.26458332px;stroke-linecap:butt;stroke-linejoin:miter;stroke-opacity:1" />
      <g
         id="g4669">
        <rect
           style="opacity:1;fill:#000000;fill-opacity:1;stroke:none;stroke-width:0.132;stroke-linecap:round;stroke-linejoin:round;stroke-miterlimit:4;stroke-dasharray:none;stroke-opacity:1"
           id="rect4596"
           width="4.2333326"
           height="10.583346"
           x="50.799995"
           y="286.41666" />
        <rect
           style="opacity:1;fill:#000000;fill-opacity:1;stroke:none;stroke-width:0.132;stroke-linecap:round;stroke-linejoin:round;stroke-miterlimit:4;stroke-dasharray:none;stroke-opacity:1"
           id="rect4599"
           width="4.2333364"
           height="4.2333283"
           x="50.799992"
           y="281.12497" />
      </g>
      <g
         transform="translate(-2.1373127)"
         id="g841">
        <path
           style="opacity:1;fill:#000000;fill-opacity:1;stroke:none;stroke-width:0.49889761;stroke-linecap:round;stroke-linejoin:round;stroke-miterlimit:4;stroke-dasharray:none;stroke-opacity:1"
           d="M 132 40 A 20 20 0 0 0 112 60 A 20 20 0 0 0 132 80 A 20 20 0 0 0 152 60 A 20 20 0 0 0 132 40 z M 131.92188 52 A 7.9999992 7.9999992 0 0 1 139.92188 60 A 7.9999992 7.9999992 0 0 1 131.92188 68 A 7.9999992 7.9999992 0 0 1 123.92188 60 A 7.9999992 7.9999992 0 0 1 131.92188 52 z "
           transform="matrix(0.26458334,0,0,0.26458334,2.1373127,275.83332)"
           id="path865" />
        <rect
           style="opacity:1;fill:#000000;fill-opacity:1;stroke:none;stroke-width:0.132;stroke-linecap:round;stroke-linejoin:round;stroke-miterlimit:4;stroke-dasharray:none;stroke-opacity:1"
           id="rect4616"
           width="3.175"
           height="10.583333"
           x="39.158333"
           y="286.41666" />
      </g>
      <path
         d="m 65.087503,297.87852 a 5.291667,5.2916665 0 0 1 -5.291667,0 5.291667,5.2916665 0 0 1 -2.645834,-4.58271 l 5.291667,0 z"
         sodipodi:end="3.1415927"
         sodipodi:start="1.0471976"
         sodipodi:ry="5.2916665"
         sodipodi:rx="5.291667"
         sodipodi:cy="293.29581"
         sodipodi:cx="62.441669"
         sodipodi:type="arc"
         id="path849"
         style="opacity:1;fill:#000000;fill-opacity:1;stroke:none;stroke-width:0.132;stroke-linecap:round;stroke-linejoin:round;stroke-miterlimit:4;stroke-dasharray:none;stroke-opacity:1" />
      <circle
         r="1.0583333"
         cy="293.29581"
         cx="62.441662"
         id="path851"
         style="opacity:1;fill:#ffffff;fill-opacity:1;stroke:none;stroke-width:0.132;stroke-linecap:round;stroke-linejoin:round;stroke-miterlimit:4;stroke-dasharray:none;stroke-opacity:1" />
      <rect
         y="282.18332"
         x="57.149994"
         height="11.641656"
         width="4.2333345"
         id="rect853"
         style="opacity:1;fill:#000000;fill-opacity:1;stroke:none;stroke-width:0.13200001;stroke-linecap:round;stroke-linejoin:round;stroke-miterlimit:4;stroke-dasharray:none;stroke-opacity:1" />
      <rect
         y="286.41666"
         x="55.033325"
         height="4.2333403"
         width="8.4666662"
         id="rect855"
         style="opacity:1;fill:#000000;fill-opacity:1;stroke:none;stroke-width:0.13199998;stroke-linecap:round;stroke-linejoin:round;stroke-miterlimit:4;stroke-dasharray:none;stroke-opacity:1" />
      <path
         style="fill:#000000;fill-opacity:1;fill-rule:evenodd;stroke:none;stroke-width:0.26458332px;stroke-linecap:butt;stroke-linejoin:miter;stroke-opacity:1"
         d="m 62.441666,286.41666 4.233334,-10e-6 2.116665,6.35001 2.116667,-6.35 h 4.233334 l -4.233333,10.58333 -2.116669,7.40833 H 64.558331 L 66.675,296.99998 Z"
         id="path4671"
         inkscape:connector-curvature="0"
         sodipodi:nodetypes="cccccccccc" />
    </g>
  </g>
</svg>
